<svg xmlns="http://www.w3.org/2000/svg" width="1600" height="1040" viewBox="0 0 1600 1040" role="img" aria-labelledby="title desc">
  <title id="title">Life (Lite) Wireframe Overview</title>
  <desc id="desc">High-level wireframe map showing app routes, standard dashboard widget organization, and modal interaction flow.</desc>

  <defs>
    <style>
      .bg { fill: #f8fafc; }
      .title { fill: #0f172a; font: 700 28px Arial, sans-serif; }
      .sub { fill: #334155; font: 13px Arial, sans-serif; }
      .panel { fill: #ffffff; stroke: #1f2937; stroke-width: 2; rx: 10; }
      .panel-title { fill: #ffffff; font: 700 16px Arial, sans-serif; }
      .panel-head-routes { fill: #1d4ed8; }
      .panel-head-dash { fill: #0f766e; }
      .panel-head-modal { fill: #7c3aed; }
      .text { fill: #111827; font: 13px Arial, sans-serif; }
      .widget { fill: #f8fafc; stroke: #64748b; stroke-width: 1.5; rx: 7; }
      .widget-title { fill: #0f172a; font: 700 12px Arial, sans-serif; }
      .arrow { stroke: #334155; stroke-width: 2; fill: none; }
      .muted-arrow { stroke: #64748b; stroke-width: 1.8; fill: none; stroke-dasharray: 5 5; }
      .label { fill: #0f172a; font: 12px Arial, sans-serif; }
      .legend-title { fill: #0f172a; font: 700 13px Arial, sans-serif; }
      .legend-text { fill: #334155; font: 13px Arial, sans-serif; }

    </style>
    <marker id="arrow" markerWidth="10" markerHeight="10" refX="8" refY="5" orient="auto">
      <path d="M0,0 L10,5 L0,10 z" fill="#334155"/>
    </marker>
    <marker id="arrowMuted" markerWidth="10" markerHeight="10" refX="8" refY="5" orient="auto">
      <path d="M0,0 L10,5 L0,10 z" fill="#64748b"/>
    </marker>
  </defs>

  <rect class="bg" x="0" y="0" width="1600" height="1040"/>
  <text class="title" x="800" y="40" text-anchor="middle">Life (Lite) Wireframe Overview</text>
  <text class="sub" x="800" y="64" text-anchor="middle">Route flow + dashboard information architecture + modal interaction model</text>

  <!-- ROUTES PANEL -->
  <g transform="translate(40,100)">
    <rect class="panel" width="460" height="540"/>
    <rect class="panel-head-routes" width="460" height="38"/>
    <text class="panel-title" x="230" y="24" text-anchor="middle">Route Flow</text>

    <rect class="widget" x="60" y="70" width="340" height="56"/>
    <text class="widget-title" x="80" y="96">/login</text>
    <text class="text" x="80" y="114">Email + password</text>

    <rect class="widget" x="60" y="180" width="340" height="56"/>
    <text class="widget-title" x="80" y="206">/register</text>
    <text class="text" x="80" y="224">Create account + optional photo upload</text>

    <rect class="widget" x="60" y="290" width="340" height="84"/>
    <text class="widget-title" x="80" y="316">/dashboard (main app shell)</text>
    <text class="text" x="80" y="334">Aggregated data from GET /api/dashboard</text>
    <text class="text" x="80" y="352">Widget actions open create/edit modals</text>

    <rect class="widget" x="60" y="430" width="340" height="56"/>
    <text class="widget-title" x="80" y="456">/settings</text>
    <text class="text" x="80" y="474">Update profile + account fields</text>

    <path class="arrow" marker-end="url(#arrow)" d="M230,126 L230,180"/>
    <path class="arrow" marker-end="url(#arrow)" d="M230,236 L230,290"/>
    <path class="arrow" marker-end="url(#arrow)" d="M230,374 L230,430"/>
    <path class="muted-arrow" marker-end="url(#arrowMuted)" d="M400,208 C435,208 435,98 400,98"/>
    <text class="label" x="326" y="88">Switch auth mode</text>
  </g>

  <!-- DASHBOARD PANEL -->
  <g transform="translate(540,100)">
    <rect class="panel" width="1020" height="640"/>
    <rect class="panel-head-dash" width="1020" height="38"/>
    <text class="panel-title" x="510" y="24" text-anchor="middle">Dashboard Wireframe (MVP Layout)</text>

    <text x="510" y="72" text-anchor="middle" fill="#0f172a" font="700 24px Arial, sans-serif">At a Glance (Lite)</text>

    <!-- Top row -->
    <rect class="widget" x="44" y="96" width="300" height="82"/>
    <text class="widget-title" x="62" y="122">User Greeting</text>
    <text class="text" x="62" y="142">Changes for time of day</text>

    <!-- Core grid -->
    <rect class="widget" x="44" y="220" width="220" height="132"/>
    <text class="widget-title" x="62" y="246">Calendar View</text>
    <text class="text" x="62" y="266">Monthly activity indicators</text>

    <rect class="widget" x="292" y="220" width="220" height="132"/>
    <text class="widget-title" x="310" y="246">Today's To-Dos</text>
    <text class="text" x="310" y="266">Checklist + priority sorting</text>

    <rect class="widget" x="540" y="220" width="396" height="132"/>
    <text class="widget-title" x="558" y="246">Quick Notes</text>
    <text class="text" x="558" y="266">Capture ideas quickly; pin important notes</text>

    <rect class="widget" x="44" y="380" width="220" height="132"/>
    <text class="widget-title" x="62" y="406">Upcoming Bills</text>
    <text class="text" x="62" y="426">Recurring due dates + amounts</text>

    <rect class="widget" x="292" y="380" width="220" height="132"/>
    <text class="widget-title" x="310" y="406">Waiting On</text>
    <text class="text" x="310" y="426">Track blocked items + follow-ups</text>

    <rect class="widget" x="540" y="380" width="396" height="132"/>
    <text class="widget-title" x="558" y="406">Upcoming Birthdays</text>
    <text class="text" x="558" y="426">Upcoming reminders for people you track</text>

    <rect class="widget" x="44" y="540" width="892" height="82"/>
    <text class="widget-title" x="62" y="566">Friend Board</text>
    <text class="text" x="62" y="586">Recent comments from accepted friends (friends-only interactions)</text>
  </g>

  <!-- MODAL PANEL -->
  <g transform="translate(40,670)">
    <rect class="panel" width="460" height="280"/>
    <rect class="panel-head-modal" width="460" height="38"/>
    <text class="panel-title" x="230" y="24" text-anchor="middle">Modal Interaction Pattern</text>

    <rect class="widget" x="46" y="70" width="368" height="76"/>
    <text class="widget-title" x="60" y="94">Widget action</text>
    <text class="text" x="60" y="112">User clicks + (create) or item row (edit)</text>
    <text class="text" x="60" y="130">Context passes into reusable modal component</text>

    <rect class="widget" x="46" y="176" width="368" height="76"/>
    <text class="widget-title" x="60" y="200">Modal form</text>
    <text class="text" x="60" y="218">Save -&gt; API mutate -&gt; refresh widget data</text>
    <text class="text" x="60" y="236">Delete (edit mode) -&gt; API delete -&gt; refresh widget</text>

    <path class="arrow" marker-end="url(#arrow)" d="M230,146 L230,176"/>
  </g>

  <!-- Connectors from route panel to dashboard/settings -->
  <path class="arrow" marker-end="url(#arrow)" d="M500,430 C520,430 520,200 540,200"/>
  <text class="label" x="508" y="306">auth success</text>
  <path class="arrow" marker-end="url(#arrow)" d="M500,540 C520,540 520,550 540,550"/>
  <text class="label" x="508" y="535">settings route</text>

  <!-- Legend -->
  <rect x="540" y="770" width="1020" height="180" fill="#ffffff" stroke="#cbd5e1" stroke-width="1.5" rx="8"/>
  <text class="legend-title" x="566" y="800">Legend</text>
  <text class="legend-text" x="566" y="828">Solid arrows: primary route/navigation flow</text>
  <text class="legend-text" x="566" y="852">Dashed arrows: secondary or alternate flow</text>
  <text class="legend-text" x="566" y="876">Widget boxes: standard wireframe representation of dashboard modules</text>
  <text class="legend-text" x="566" y="900">Dashboard panel above represents MVP widgets only</text>
  <text class="legend-text" x="566" y="924">Modal panel: reusable create/edit interaction pattern used by widget actions</text>
</svg>
